<svg xmlns="http://www.w3.org/2000/svg" xml:space="preserve" x="0" y="0" style="enable-background:new 0 0 136.3 151.4" version="1.1" viewBox="0 0 136.3 151.4">
  <path fill="currentColor" d="M16.6 122c-5.7 0-11.2-2.9-14.2-8.2-4.6-7.9-1.9-17.9 6-22.5L111 31.7c7.9-4.6 17.9-1.9 22.5 6 4.6 7.9 1.9 17.9-6 22.5L24.9 119.8c-2.6 1.5-5.4 2.2-8.3 2.2z"/>
  <path fill="currentColor" d="M68.1 151.6c-5.7 0-11.2-2.9-14.2-8.2-4.6-7.9-1.9-17.9 6-22.5l51.3-29.8c7.9-4.6 17.9-1.9 22.5 6 4.6 7.9 1.9 17.9-6 22.5l-51.3 29.8c-2.6 1.4-5.5 2.2-8.3 2.2z"/>
  <path fill="currentColor" d="M16.5 62.7c-5.7 0-11.2-2.9-14.2-8.2-4.6-7.9-1.9-17.9 6-22.5L59.5 2.2C67.4-2.4 77.4.3 82 8.2s1.9 17.9-6 22.5L24.7 60.5c-2.6 1.5-5.4 2.2-8.2 2.2z"/>
</svg>
